<svg xmlns="http://www.w3.org/2000/svg" width="5721" height="3754" viewBox="0 0 5721 3754">
  <defs>
    <style>
      .cls-1 {
        fill-rule: evenodd;
      }
    </style>
  </defs>
  <path id="Color_Fill_1" data-name="Color Fill 1" class="cls-1" d="M0,0H5721V2387H5377c-32.81,0-121.53,6.25-143-4v-1c0.85-7.92,4.26-21.24,9-26,2.92-2.7,12.51-3.06,15-6V2189c-8.6-32.59-51.01-141.13-72-156q-9-2.505-18-5-14.505-8.505-29-17c-15.07-10.4-41.97-32.79-60-38q-47.49.495-95,1-13.005,6-26,12-24,3.495-48,7-7.5,4.995-15,10-10.995,1.005-22,2c-10.5,5.69-22.88,15.05-35,20V1908c-4.39-22.13-17.99-41.46-24-59q-1.005-13.005-2-26c-8.53-1.05-14.38-4.38-20-6q-16.5-1.005-33-2-9-5.505-18-11-16.995-4.005-34-8-8.505-4.5-17-9H3631c-64.61,0-140.83-4.34-196,6H3311c-26.83,4.29-55.85,6.39-79,16q-4.995,4.005-10,8h-30c-32.97,0-65.43-1.55-87,9-42.06,20.56-30,96.69-30,158q0.495,58.995,1,118c1.83,7.51,9.04,10.71,11,17q0.495,16.995,1,34,5.505,16.995,11,34c3.53,16.85,3.09,35.44,6,48q0.495,13.5,1,27l12,18c4.49,15.42,10.77,64.77,5,86-6.29,23.15-31.07,15.82-57,21-10.74,2.15-15.61,9.83-27,12q-59.49-.495-119-1c-9.44-2.12-49.06-21.07-58-27l-11-11c-13.95-6.77-42.13-3-61-3q-74.49.495-149,1c-11.04,1.96-16.88,8.05-26,11l-46,9q-6.495,4.5-13,9c-45.35,13.14-184.16,22-230,3-1.35-22.2-4.65-28.64-17-39-46.61.05-91.64,16.28-133,24H1981c-14.48,2.39-25.78,9.03-38,12q-15.495,1.005-31,2-10.5,4.995-21,10H1707q-83.49-.495-167-1-19.995-1.005-40-2-9.495-4.995-19-10-13.005-1.995-26-4c-8.25-4.64-5.14-18.35-14-23-8-4.34-100.99-3.95-117-2-19.68,2.4-30.24,8.84-49,12H1042c-53.553,0-102.955,8.78-147,17q-37.5,1.005-75,2-22.5,5.505-45,11H162q-20-1.005-40-2-16-4.995-32-10H11q-5.5-25.995-11-52V0ZM4979,2081h93c10.38,3,29.84,19.26,35,28q1.995,7.5,4,15,16.005,16.5,32,33c8.51,18,1.05,48.25,7,69q5.505,8.505,11,17c11.18,35.09-8.73,63.14-17,84-34.84-.31-46.43,30.94-66,47q-30.99.495-62,1c-7.83,2.1-11.3,9.22-21,11q-43.5.495-87,1h-65c-4.68-1.51-4.73-6.48-8-9-11.47-8.84-29.74-8.99-50-9l5-5c2.44-15-2.81-89.65,4-95,11.07-5.24,33.08-3.48,44-8,5.75-18.32,18.37-28.26,27-43,9.66-16.49,11.66-37.31,21-53q5.505-4.5,11-9c8.13-17.65,1.98-47.67,17-58C4930.14,2086.9,4961.22,2089.17,4979,2081Z"/>
</svg>
